<svg width="512" height="512" viewBox="0 0 512 512" fill="none" xmlns="http://www.w3.org/2000/svg">
<path d="M284.475 37.4922C389.425 37.4922 474.504 122.571 474.504 227.521V283.475C474.504 388.425 389.425 473.504 284.475 473.504H228.521C123.571 473.504 38.4922 388.425 38.4922 283.475V227.521C38.4922 122.571 123.571 37.4922 228.521 37.4922H284.475ZM228.521 113.504C165.551 113.504 114.504 164.551 114.504 227.521V283.475C114.504 346.445 165.551 397.492 228.521 397.492H284.475C347.445 397.492 398.492 346.445 398.492 283.475V227.521C398.492 164.551 347.445 113.504 284.475 113.504H228.521ZM256.499 203.24C285.943 203.24 309.813 227.109 309.813 256.554C309.813 285.998 285.943 309.868 256.499 309.868C227.055 309.868 203.186 285.998 203.186 256.554C203.186 227.11 227.055 203.24 256.499 203.24Z" fill="#FF427B" style="fill:#FF427B;fill:color(display-p3 1.0000 0.2583 0.4808);fill-opacity:1;"/>
</svg>
